<svg width="691.1999999999999" height="691.1999999999999" viewbox = "0 0 691.1999999999999 691.1999999999999"  xmlns="http://www.w3.org/2000/svg">
<!--<json>{
  "canvas": {
    "width": 691.1999999999999,
    "height": 691.1999999999999,
    "unit": 69.11999999999999,
    "x0": 345.59999999999997,
    "y0": 345.59999999999997,
    "theta0": -1.5707963267948966,
    "viewStep": 50
  },
  "style": {
    "color0": "black",
    "color1": "black",
    "color2": "red",
    "color3": "orange",
    "color4": "yellow",
    "color5": "green",
    "color6": "blue",
    "color7": "purple",
    "fill0": "black",
    "fill1": "black",
    "fill2": "red",
    "fill3": "orange",
    "fill4": "yellow",
    "fill5": "green",
    "fill6": "blue",
    "fill7": "purple",
    "line0": 3,
    "line1": 6,
    "line2": 2,
    "line3": 2,
    "line4": 2,
    "line5": 2,
    "line6": 2,
    "line7": 2
  },
  "cursor": {
    "x": 518.4000000000055,
    "y": 120.96000000000656,
    "r": 34.559999999999995,
    "word": "",
    "theta": -1.570796326794882,
    "thetaStep": 1.5707963267948966,
    "scaleFactor": 2,
    "font": "Arial",
    "bezier": {
      "cpx1": 449,
      "cpy1": 138,
      "cpx2": 311,
      "cpy2": 276,
      "x2": 311,
      "y2": 138
    }
  },
  "glyph": [
    149,
    217,
    217,
    218,
    218,
    218,
    221,
    221,
    222,
    222,
    216,
    223,
    210,
    144,
    218,
    218,
    144,
    218,
    218,
    144,
    218,
    218,
    144,
    221,
    221,
    217,
    219,
    219,
    214,
    144,
    219,
    219,
    144,
    219,
    219,
    211,
    144,
    216,
    218,
    216,
    218,
    218,
    218,
    216,
    216,
    216,
    216,
    216,
    216,
    216,
    218,
    218,
    218,
    218,
    216,
    216,
    216,
    218,
    218,
    221,
    221,
    217,
    218,
    210,
    144,
    221,
    221,
    217,
    219,
    219,
    214,
    144,
    219,
    219,
    219,
    219,
    219,
    219,
    144
  ],
  "shapeStack": [
    "0220:0336,0201,0334,0336,0336,0331,0337,0306,0362,0203,0335,0335,0203,0335,0335,0203,0363,0334,0336,0331,0337,0304,0334,0337,0331,0337,",
    "0221:0336,0336,0336,0336,0341,0337,0337,0337,0332,0336,0336,0336,0341,0337,0337,0337,0337,0333,0336,0336,0336,0336,0341,0337,0331,0333,0337,0362,0203,0334,0203,0203,0203,0203,0203,0334,0203,0334,0203,0203,0203,0203,0203,0334,0354,0332,0332,0332,0336,0330,0333,0337,0337,0337,",
    "0222:0336,0336,0336,0362,0203,0306,0334,0203,0335,0335,0337,0203,0334,0334,0203,0335,0335,0203,0334,0334,0203,0335,0335,0203,0334,0334,0336,0203,0335,0203,0364,0337,0337,0337,0304,",
    "0223:0336,0336,0201,0333,0337,0200,0330,0336,0332,0342,0330,0337,0337,0331,0336,0330,0335,0336,0331,0337,0222,0334,0336,0332,0337,0350,0335,0342,0335,0335,0335,0335,0342,0335,0335,0335,0335,0304,0330,0335,0336,0336,0331,0336,0330,0337,0362,0203,0306,0334,0334,0203,0334,0334,0203,0363,0335,0336,0331,0337,0304,0335,0337,0337,0331,0350,0334,0304,0331,0337,0330,",
    "0224:0336,0336,0342,0330,0337,0330,0336,0342,0337,0331,0312,0336,0335,0331,0313,0337,0306,0362,0203,0334,0334,0203,0334,0334,0203,0354,0335,0336,0331,0304,0335,0312,0337,0313,0336,0331,0337,0337,0330,",
    "0225:0332,0331,0331,0332,0332,0342,0333,0342,0333,0342,0333,0342,0333,0342,0333,0342,0333,0342,0330,0332,0332,0332,0332,0332,0332,0336,0333,0337,0221,0333,0333,0221,0333,0333,0221,0332,0332,0332,0330,0221,0333,0333,0333,0336,0333,0337,0221,0331,0336,0332,0337,0342,0330,0333,0336,0332,0337,0224,0221,0331,0333,0331,0336,0366,0330,0332,0330,0335,0335,0367,0335,0335,0331,0332,0330,0332,0332,0332,0331,0332,0332,0331,0366,0330,0332,0330,0335,0335,0367,0335,0335,0332,0331,0332,0331,0332,0366,0330,0333,0330,0335,0335,0367,0335,0335,0333,0337,0223,0342,0330,0342,0333,0333,0331,0333,0333,0337,0342,0336,0332,0337,0366,0330,0332,0335,0335,0367,0335,0335,0331,0333,0331,0336,0330,0332,0336,0332,0337,0332,0336,0333,0333,0337,",
    "0226:0225,0331,0331,0332,0332,0332,0335,0335,0336,0336,0330,0337,0322,0220,0332,0332,0220,0332,0332,0220,0332,0332,0220,0335,0335,0331,0333,0333,0326,0220,0333,0333,0220,0333,0333,0323,0220,0330,0332,0330,0332,0332,0332,0330,0330,0330,0330,0330,0330,0330,0332,0332,0332,0332,0330,0330,0330,0332,0332,0335,0335,0331,0332,0322,0220,0335,0335,0331,0333,0333,0326,0220,0333,0333,0333,0333,0333,0333,0220,",
    "01220:0333,0200,0336,0332,0337,0220,0336,0333,0337,",
    "01221:0333,0200,0336,0332,0330,0337,0221,0336,0331,0333,0337,",
    "01222:0333,0200,0336,0332,0337,0222,0331,0336,0333,0337,",
    "01223:0333,0200,0336,0332,0337,0223,0331,0336,0333,0337,",
    "01224:0333,0200,0336,0332,0337,0224,0331,0336,0333,0337,",
    "01225:0333,0200,0336,0330,0332,0330,0330,0330,0225,0331,0331,0331,0331,0333,0337,",
    "01226:0333,0200,0330,0332,0336,0330,0330,0333,0225,0331,0331,0331,0331,0333,0337,",
    "01227:0333,0200,",
    "01230:0333,0200,0336,0330,0332,0331,0337,0230,0331,0336,0333,0337,",
    "01231:0333,0200,0336,0330,0332,0331,0336,0336,0330,0337,0337,0231,0331,0333,0336,0336,0331,0337,0331,0337,0337,",
    "01232:0333,0200,0336,0330,0332,0331,0336,0330,0337,0336,0330,0232,0331,0333,0331,0333,0337,0337,",
    "01233:0333,0200,0330,0336,0332,0331,0336,0233,0331,0333,0331,0333,0337,0337,",
    "01234:0333,0200,0336,0332,0337,0336,0330,0330,0234,0331,0331,0333,0337,",
    "01235:0333,0200,0336,0330,0332,0330,0330,0235,0331,0331,0331,0333,0337,",
    "01236:0333,0200,0336,0330,0332,0337,0236,0336,0331,0333,0337,",
    "01237:0333,0200,0336,0330,0332,0336,0332,060,062,063,067,0365,0333,0333,0331,0331,0333,0337,0337,"
  ]
}</json>-->    <line x1="138" y1="484" x2="138" y2="415" style="stroke:#000000;stroke-width:3" />
    <line x1="207" y1="484" x2="207" y2="415" style="stroke:#000000;stroke-width:3" />
    <line x1="276" y1="484" x2="276" y2="415" style="stroke:#000000;stroke-width:3" />
    <line x1="346" y1="484" x2="346" y2="415" style="stroke:#000000;stroke-width:3" />
    <line x1="415" y1="484" x2="415" y2="415" style="stroke:#000000;stroke-width:3" />
    <line x1="484" y1="484" x2="484" y2="415" style="stroke:#000000;stroke-width:3" />
    <line x1="553" y1="484" x2="553" y2="415" style="stroke:#000000;stroke-width:3" />
<circle cx="173" cy = "415" r = "4.319999999999999" stroke = "#000000" stroke-width = "3" fill = "none" />
<circle cx="138" cy = "415" r = "4.319999999999999" stroke = "#000000" stroke-width = "3" fill = "none" />
<circle cx="207" cy = "415" r = "4.319999999999999" stroke = "#000000" stroke-width = "3" fill = "none" />
	<path d = "M216 423 L216 406 L199 406 L181 406 L164 406 L147 406 L130 406 L130 423 L147 423 L164 423 L181 423 L199 423 L216 423 Z" stroke = "#000000" stroke-width = "3" fill = "none" /><circle cx="311" cy = "415" r = "4.319999999999999" stroke = "#000000" stroke-width = "3" fill = "none" />
<circle cx="276" cy = "415" r = "4.319999999999999" stroke = "#000000" stroke-width = "3" fill = "none" />
<circle cx="346" cy = "415" r = "4.319999999999999" stroke = "#000000" stroke-width = "3" fill = "none" />
	<path d = "M354 423 L354 406 L337 406 L320 406 L302 406 L285 406 L268 406 L268 423 L285 423 L302 423 L320 423 L337 423 L354 423 Z" stroke = "#000000" stroke-width = "3" fill = "none" /><circle cx="449" cy = "415" r = "4.319999999999999" stroke = "#000000" stroke-width = "3" fill = "none" />
<circle cx="415" cy = "415" r = "4.319999999999999" stroke = "#000000" stroke-width = "3" fill = "none" />
<circle cx="484" cy = "415" r = "4.319999999999999" stroke = "#000000" stroke-width = "3" fill = "none" />
	<path d = "M492 423 L492 406 L475 406 L458 406 L441 406 L423 406 L406 406 L406 423 L423 423 L441 423 L458 423 L475 423 L492 423 Z" stroke = "#000000" stroke-width = "3" fill = "none" /><circle cx="242" cy = "346" r = "4.319999999999999" stroke = "#000000" stroke-width = "3" fill = "none" />
<circle cx="207" cy = "346" r = "4.319999999999999" stroke = "#000000" stroke-width = "3" fill = "none" />
<circle cx="276" cy = "346" r = "4.319999999999999" stroke = "#000000" stroke-width = "3" fill = "none" />
	<path d = "M285 354 L285 337 L268 337 L251 337 L233 337 L216 337 L199 337 L199 354 L216 354 L233 354 L251 354 L268 354 L285 354 Z" stroke = "#000000" stroke-width = "3" fill = "none" /><circle cx="484" cy = "346" r = "4.319999999999999" stroke = "#000000" stroke-width = "3" fill = "none" />
<circle cx="449" cy = "346" r = "4.319999999999999" stroke = "#000000" stroke-width = "3" fill = "none" />
<circle cx="518" cy = "346" r = "4.319999999999999" stroke = "#000000" stroke-width = "3" fill = "none" />
	<path d = "M527 354 L527 337 L510 337 L492 337 L475 337 L458 337 L441 337 L441 354 L458 354 L475 354 L492 354 L510 354 L527 354 Z" stroke = "#000000" stroke-width = "3" fill = "none" />    <line x1="449" y1="415" x2="449" y2="346" style="stroke:#000000;stroke-width:3" />
    <line x1="484" y1="346" x2="484" y2="328" style="stroke:#000000;stroke-width:3" />
    <line x1="484" y1="294" x2="484" y2="276" style="stroke:#000000;stroke-width:3" />
	<path d = "M464 328 L504 328 L484 294 L464 328 Z" stroke = "#000000" stroke-width = "3" fill = "none" /><circle cx="484" cy = "276" r = "4.319999999999999" stroke = "#000000" stroke-width = "3" fill = "none" />
<circle cx="449" cy = "276" r = "4.319999999999999" stroke = "#000000" stroke-width = "3" fill = "none" />
<circle cx="518" cy = "276" r = "4.319999999999999" stroke = "#000000" stroke-width = "3" fill = "none" />
	<path d = "M527 285 L527 268 L510 268 L492 268 L475 268 L458 268 L441 268 L441 285 L458 285 L475 285 L492 285 L510 285 L527 285 Z" stroke = "#000000" stroke-width = "3" fill = "none" /><path    d = "M553,415 C553,380 518,380 518,346" fill = "none" stroke-width = "3" stroke = "#000000" /><path    d = "M311,415 C311,380 276,380 276,346" fill = "none" stroke-width = "3" stroke = "#000000" /><path    d = "M173,415 C173,380 207,380 207,346" fill = "none" stroke-width = "3" stroke = "#000000" />    <line x1="242" y1="346" x2="242" y2="328" style="stroke:#000000;stroke-width:3" />
	<path d = "M259 328 L259 294 L225 294 L225 328 L259 328 Z" stroke = "#000000" stroke-width = "3" fill = "none" />    <line x1="242" y1="294" x2="242" y2="276" style="stroke:#000000;stroke-width:3" />
	<path d = "M225 311 L229 311 L231 307 L235 315 L240 307 L244 315 L248 307 L253 315 L255 311 L259 311 " stroke = "#000000" stroke-width = "3" fill = "none" />    <line x1="242" y1="311" x2="266" y2="287" style="stroke:#000000;stroke-width:3" />
    <line x1="242" y1="311" x2="217" y2="335" style="stroke:#000000;stroke-width:3" />
	<path d = "M263 284 L269 290 L272 281 L263 284 Z" stroke = "#000000" stroke-width = "3" fill = "#000000" />    <line x1="242" y1="276" x2="242" y2="207" style="stroke:#000000;stroke-width:3" />
    <line x1="242" y1="207" x2="242" y2="138" style="stroke:#000000;stroke-width:3" />
    <line x1="518" y1="276" x2="518" y2="138" style="stroke:#000000;stroke-width:3" />
<path    d = "M449,276 C449,138 311,276 311,138" fill = "none" stroke-width = "3" stroke = "#000000" />    <line x1="138" y1="501" x2="138" y2="518" style="stroke:#ff0000;stroke-width:2" />
	<path d = "M134 518 L143 518 L138 526 L134 518 Z" stroke = "#ff0000" stroke-width = "2" fill = "#ff0000" />    <line x1="207" y1="501" x2="207" y2="518" style="stroke:#ff0000;stroke-width:2" />
	<path d = "M203 518 L212 518 L207 526 L203 518 Z" stroke = "#ff0000" stroke-width = "2" fill = "#ff0000" />    <line x1="276" y1="501" x2="276" y2="518" style="stroke:#ff0000;stroke-width:2" />
	<path d = "M272 518 L281 518 L276 526 L272 518 Z" stroke = "#ff0000" stroke-width = "2" fill = "#ff0000" />    <line x1="346" y1="501" x2="346" y2="518" style="stroke:#ff0000;stroke-width:2" />
	<path d = "M341 518 L350 518 L346 526 L341 518 Z" stroke = "#ff0000" stroke-width = "2" fill = "#ff0000" />    <line x1="415" y1="536" x2="415" y2="518" style="stroke:#0000ff;stroke-width:2" />
	<path d = "M419 518 L410 518 L415 511 L419 518 Z" stroke = "#0000ff" stroke-width = "2" fill = "#0000ff" />    <line x1="484" y1="536" x2="484" y2="518" style="stroke:#0000ff;stroke-width:2" />
	<path d = "M488 518 L480 518 L484 511 L488 518 Z" stroke = "#0000ff" stroke-width = "2" fill = "#0000ff" />    <line x1="553" y1="536" x2="553" y2="518" style="stroke:#ffa500;stroke-width:2" />
	<path d = "M557 518 L549 518 L553 511 L557 518 Z" stroke = "#ffa500" stroke-width = "2" fill = "#ffa500" />    <line x1="242" y1="86" x2="242" y2="104" style="stroke:#ff0000;stroke-width:2" />
	<path d = "M238 104 L246 104 L242 111 L238 104 Z" stroke = "#ff0000" stroke-width = "2" fill = "#ff0000" />    <line x1="311" y1="121" x2="311" y2="104" style="stroke:#0000ff;stroke-width:2" />
	<path d = "M315 104 L307 104 L311 96 L315 104 Z" stroke = "#0000ff" stroke-width = "2" fill = "#0000ff" />    <line x1="518" y1="121" x2="518" y2="104" style="stroke:#0000ff;stroke-width:2" />
	<path d = "M523 104 L514 104 L518 96 L523 104 Z" stroke = "#0000ff" stroke-width = "2" fill = "#0000ff" /></svg>