<svg width="691.1999999999999" height="691.1999999999999" viewbox = "0 0 691.1999999999999 691.1999999999999"  xmlns="http://www.w3.org/2000/svg">
<!--<json>{
  "canvas": {
    "width": 691.1999999999999,
    "height": 691.1999999999999,
    "unit": 101.19859200000002,
    "x0": 345.59999999999997,
    "y0": 391.0545454545454,
    "theta0": -1.5707963267948966,
    "viewStep": 50
  },
  "style": {
    "color0": "black",
    "color1": "black",
    "color2": "red",
    "color3": "orange",
    "color4": "yellow",
    "color5": "green",
    "color6": "blue",
    "color7": "purple",
    "fill0": "black",
    "fill1": "black",
    "fill2": "red",
    "fill3": "orange",
    "fill4": "yellow",
    "fill5": "green",
    "fill6": "blue",
    "fill7": "purple",
    "line0": 3,
    "line1": 6,
    "line2": 2,
    "line3": 2,
    "line4": 2,
    "line5": 2,
    "line6": 2,
    "line7": 2
  },
  "cursor": {
    "x": 598.5964800000073,
    "y": 62.15912145455369,
    "r": 50.59929600000001,
    "word": "",
    "theta": -1.570796326794882,
    "thetaStep": 1.5707963267948966,
    "scaleFactor": 2,
    "font": "Arial",
    "bezier": {
      "cpx1": 497,
      "cpy1": 87,
      "cpx2": 295,
      "cpy2": 290,
      "x2": 295,
      "y2": 87
    }
  },
  "glyph": [
    149,
    217,
    217,
    218,
    218,
    218,
    221,
    221,
    222,
    222,
    216,
    223,
    210,
    144,
    218,
    218,
    144,
    218,
    218,
    144,
    218,
    218,
    144,
    221,
    221,
    217,
    219,
    219,
    214,
    144,
    219,
    219,
    144,
    219,
    219,
    211,
    144,
    216,
    218,
    216,
    218,
    218,
    218,
    216,
    216,
    216,
    216,
    216,
    216,
    216,
    218,
    218,
    218,
    218,
    216,
    216,
    216,
    218,
    218,
    221,
    221,
    217,
    218,
    210,
    144,
    221,
    221,
    217,
    219,
    219,
    214,
    144,
    219,
    219,
    219,
    219,
    219,
    219,
    144
  ],
  "shapeStack": [
    "0220:0336,0201,0334,0336,0336,0331,0337,0306,0362,0203,0335,0335,0203,0335,0335,0203,0363,0334,0336,0331,0337,0304,0334,0337,0331,0337,",
    "0221:0336,0336,0336,0336,0341,0337,0337,0337,0332,0336,0336,0336,0341,0337,0337,0337,0337,0333,0336,0336,0336,0336,0341,0337,0331,0333,0337,0362,0203,0334,0203,0203,0203,0203,0203,0334,0203,0334,0203,0203,0203,0203,0203,0334,0354,0332,0332,0332,0336,0330,0333,0337,0337,0337,",
    "0222:0336,0336,0336,0362,0203,0306,0334,0203,0335,0335,0337,0203,0334,0334,0203,0335,0335,0203,0334,0334,0203,0335,0335,0203,0334,0334,0336,0203,0335,0203,0364,0337,0337,0337,0304,",
    "0223:0336,0336,0201,0333,0337,0200,0330,0336,0332,0342,0330,0337,0337,0331,0336,0330,0335,0336,0331,0337,0222,0334,0336,0332,0337,0350,0335,0342,0335,0335,0335,0335,0342,0335,0335,0335,0335,0304,0330,0335,0336,0336,0331,0336,0330,0337,0362,0203,0306,0334,0334,0203,0334,0334,0203,0363,0335,0336,0331,0337,0304,0335,0337,0337,0331,0350,0334,0304,0331,0337,0330,",
    "0224:0336,0336,0342,0330,0337,0330,0336,0342,0337,0331,0312,0336,0335,0331,0313,0337,0306,0362,0203,0334,0334,0203,0334,0334,0203,0354,0335,0336,0331,0304,0335,0312,0337,0313,0336,0331,0337,0337,0330,",
    "0225:0332,0331,0331,0332,0332,0342,0333,0342,0333,0342,0333,0342,0333,0342,0333,0342,0333,0342,0330,0332,0332,0332,0332,0332,0332,0336,0333,0337,0221,0333,0333,0221,0333,0333,0221,0332,0332,0332,0330,0221,0333,0333,0333,0336,0333,0337,0221,0331,0336,0332,0337,0342,0330,0333,0336,0332,0337,0224,0221,0331,0333,0331,0336,0366,0330,0332,0330,0335,0335,0367,0335,0335,0331,0332,0330,0332,0332,0332,0331,0332,0332,0331,0366,0330,0332,0330,0335,0335,0367,0335,0335,0332,0331,0332,0331,0332,0366,0330,0333,0330,0335,0335,0367,0335,0335,0333,0337,0223,0342,0330,0342,0333,0333,0331,0333,0333,0337,0342,0336,0332,0337,0366,0330,0332,0335,0335,0367,0335,0335,0331,0333,0331,0336,0330,0332,0336,0332,0337,0332,0336,0333,0333,0337,",
    "0226:0225,0331,0331,0332,0332,0332,0335,0335,0336,0336,0330,0337,0322,0220,0332,0332,0220,0332,0332,0220,0332,0332,0220,0335,0335,0331,0333,0333,0326,0220,0333,0333,0220,0333,0333,0323,0220,0330,0332,0330,0332,0332,0332,0330,0330,0330,0330,0330,0330,0330,0332,0332,0332,0332,0330,0330,0330,0332,0332,0335,0335,0331,0332,0322,0220,0335,0335,0331,0333,0333,0326,0220,0333,0333,0333,0333,0333,0333,0220,",
    "01220:0333,0200,0336,0332,0337,0220,0336,0333,0337,",
    "01221:0333,0200,0336,0332,0330,0337,0221,0336,0331,0333,0337,",
    "01222:0333,0200,0336,0332,0337,0222,0331,0336,0333,0337,",
    "01223:0333,0200,0336,0332,0337,0223,0331,0336,0333,0337,",
    "01224:0333,0200,0336,0332,0337,0224,0331,0336,0333,0337,",
    "01225:0333,0200,0336,0330,0332,0330,0330,0330,0225,0331,0331,0331,0331,0333,0337,",
    "01226:0333,0200,0330,0332,0336,0330,0330,0333,0225,0331,0331,0331,0331,0333,0337,",
    "01227:0333,0200,",
    "01230:0333,0200,0336,0330,0332,0331,0337,0230,0331,0336,0333,0337,",
    "01231:0333,0200,0336,0330,0332,0331,0336,0336,0330,0337,0337,0231,0331,0333,0336,0336,0331,0337,0331,0337,0337,",
    "01232:0333,0200,0336,0330,0332,0331,0336,0330,0337,0336,0330,0232,0331,0333,0331,0333,0337,0337,",
    "01233:0333,0200,0330,0336,0332,0331,0336,0233,0331,0333,0331,0333,0337,0337,",
    "01234:0333,0200,0336,0332,0337,0336,0330,0330,0234,0331,0331,0333,0337,",
    "01235:0333,0200,0336,0330,0332,0330,0330,0235,0331,0331,0331,0333,0337,",
    "01236:0333,0200,0336,0330,0332,0337,0236,0336,0331,0333,0337,",
    "01237:0333,0200,0336,0330,0332,0336,0332,060,062,063,067,0365,0333,0333,0331,0331,0333,0337,0337,"
  ]
}</json>-->    <line x1="42" y1="593" x2="42" y2="492" style="stroke:#000000;stroke-width:3" />
    <line x1="143" y1="593" x2="143" y2="492" style="stroke:#000000;stroke-width:3" />
    <line x1="244" y1="593" x2="244" y2="492" style="stroke:#000000;stroke-width:3" />
    <line x1="346" y1="593" x2="346" y2="492" style="stroke:#000000;stroke-width:3" />
    <line x1="447" y1="593" x2="447" y2="492" style="stroke:#000000;stroke-width:3" />
    <line x1="548" y1="593" x2="548" y2="492" style="stroke:#000000;stroke-width:3" />
    <line x1="649" y1="593" x2="649" y2="492" style="stroke:#000000;stroke-width:3" />
<circle cx="93" cy = "492" r = "6.324912000000001" stroke = "#000000" stroke-width = "3" fill = "none" />
<circle cx="42" cy = "492" r = "6.324912000000001" stroke = "#000000" stroke-width = "3" fill = "none" />
<circle cx="143" cy = "492" r = "6.324912000000001" stroke = "#000000" stroke-width = "3" fill = "none" />
	<path d = "M156 505 L156 480 L131 480 L105 480 L80 480 L55 480 L29 480 L29 505 L55 505 L80 505 L105 505 L131 505 L156 505 Z" stroke = "#000000" stroke-width = "3" fill = "none" /><circle cx="295" cy = "492" r = "6.324912000000001" stroke = "#000000" stroke-width = "3" fill = "none" />
<circle cx="244" cy = "492" r = "6.324912000000001" stroke = "#000000" stroke-width = "3" fill = "none" />
<circle cx="346" cy = "492" r = "6.324912000000001" stroke = "#000000" stroke-width = "3" fill = "none" />
	<path d = "M358 505 L358 480 L333 480 L308 480 L282 480 L257 480 L232 480 L232 505 L257 505 L282 505 L308 505 L333 505 L358 505 Z" stroke = "#000000" stroke-width = "3" fill = "none" /><circle cx="497" cy = "492" r = "6.324912000000001" stroke = "#000000" stroke-width = "3" fill = "none" />
<circle cx="447" cy = "492" r = "6.324912000000001" stroke = "#000000" stroke-width = "3" fill = "none" />
<circle cx="548" cy = "492" r = "6.324912000000001" stroke = "#000000" stroke-width = "3" fill = "none" />
	<path d = "M561 505 L561 480 L535 480 L510 480 L485 480 L459 480 L434 480 L434 505 L459 505 L485 505 L510 505 L535 505 L561 505 Z" stroke = "#000000" stroke-width = "3" fill = "none" /><circle cx="194" cy = "391" r = "6.324912000000001" stroke = "#000000" stroke-width = "3" fill = "none" />
<circle cx="143" cy = "391" r = "6.324912000000001" stroke = "#000000" stroke-width = "3" fill = "none" />
<circle cx="244" cy = "391" r = "6.324912000000001" stroke = "#000000" stroke-width = "3" fill = "none" />
	<path d = "M257 404 L257 378 L232 378 L206 378 L181 378 L156 378 L131 378 L131 404 L156 404 L181 404 L206 404 L232 404 L257 404 Z" stroke = "#000000" stroke-width = "3" fill = "none" /><circle cx="548" cy = "391" r = "6.324912000000001" stroke = "#000000" stroke-width = "3" fill = "none" />
<circle cx="497" cy = "391" r = "6.324912000000001" stroke = "#000000" stroke-width = "3" fill = "none" />
<circle cx="599" cy = "391" r = "6.324912000000001" stroke = "#000000" stroke-width = "3" fill = "none" />
	<path d = "M611 404 L611 378 L586 378 L561 378 L535 378 L510 378 L485 378 L485 404 L510 404 L535 404 L561 404 L586 404 L611 404 Z" stroke = "#000000" stroke-width = "3" fill = "none" />    <line x1="497" y1="492" x2="497" y2="391" style="stroke:#000000;stroke-width:3" />
    <line x1="548" y1="391" x2="548" y2="366" style="stroke:#000000;stroke-width:3" />
    <line x1="548" y1="315" x2="548" y2="290" style="stroke:#000000;stroke-width:3" />
	<path d = "M519 366 L577 366 L548 315 L519 366 Z" stroke = "#000000" stroke-width = "3" fill = "none" /><circle cx="548" cy = "290" r = "6.324912000000001" stroke = "#000000" stroke-width = "3" fill = "none" />
<circle cx="497" cy = "290" r = "6.324912000000001" stroke = "#000000" stroke-width = "3" fill = "none" />
<circle cx="599" cy = "290" r = "6.324912000000001" stroke = "#000000" stroke-width = "3" fill = "none" />
	<path d = "M611 303 L611 277 L586 277 L561 277 L535 277 L510 277 L485 277 L485 303 L510 303 L535 303 L561 303 L586 303 L611 303 Z" stroke = "#000000" stroke-width = "3" fill = "none" /><path    d = "M649,492 C649,442 599,442 599,391" fill = "none" stroke-width = "3" stroke = "#000000" /><path    d = "M295,492 C295,442 244,442 244,391" fill = "none" stroke-width = "3" stroke = "#000000" /><path    d = "M93,492 C93,442 143,442 143,391" fill = "none" stroke-width = "3" stroke = "#000000" />    <line x1="194" y1="391" x2="194" y2="366" style="stroke:#000000;stroke-width:3" />
	<path d = "M219 366 L219 315 L169 315 L169 366 L219 366 Z" stroke = "#000000" stroke-width = "3" fill = "none" />    <line x1="194" y1="315" x2="194" y2="290" style="stroke:#000000;stroke-width:3" />
	<path d = "M169 340 L175 340 L178 335 L184 346 L191 335 L197 346 L203 335 L210 346 L213 340 L219 340 " stroke = "#000000" stroke-width = "3" fill = "none" />    <line x1="194" y1="340" x2="230" y2="305" style="stroke:#000000;stroke-width:3" />
    <line x1="194" y1="340" x2="158" y2="376" style="stroke:#000000;stroke-width:3" />
	<path d = "M225 300 L234 309 L237 297 L225 300 Z" stroke = "#000000" stroke-width = "3" fill = "#000000" />    <line x1="194" y1="290" x2="194" y2="189" style="stroke:#000000;stroke-width:3" />
    <line x1="194" y1="189" x2="194" y2="87" style="stroke:#000000;stroke-width:3" />
    <line x1="599" y1="290" x2="599" y2="87" style="stroke:#000000;stroke-width:3" />
<path    d = "M497,290 C497,87 295,290 295,87" fill = "none" stroke-width = "3" stroke = "#000000" />    <line x1="42" y1="619" x2="42" y2="644" style="stroke:#ff0000;stroke-width:2" />
	<path d = "M36 644 L48 644 L42 655 L36 644 Z" stroke = "#ff0000" stroke-width = "2" fill = "#ff0000" />    <line x1="143" y1="619" x2="143" y2="644" style="stroke:#ff0000;stroke-width:2" />
	<path d = "M137 644 L150 644 L143 655 L137 644 Z" stroke = "#ff0000" stroke-width = "2" fill = "#ff0000" />    <line x1="244" y1="619" x2="244" y2="644" style="stroke:#ff0000;stroke-width:2" />
	<path d = "M238 644 L251 644 L244 655 L238 644 Z" stroke = "#ff0000" stroke-width = "2" fill = "#ff0000" />    <line x1="346" y1="619" x2="346" y2="644" style="stroke:#ff0000;stroke-width:2" />
	<path d = "M339 644 L352 644 L346 655 L339 644 Z" stroke = "#ff0000" stroke-width = "2" fill = "#ff0000" />    <line x1="447" y1="669" x2="447" y2="644" style="stroke:#0000ff;stroke-width:2" />
	<path d = "M453 644 L440 644 L447 633 L453 644 Z" stroke = "#0000ff" stroke-width = "2" fill = "#0000ff" />    <line x1="548" y1="669" x2="548" y2="644" style="stroke:#0000ff;stroke-width:2" />
	<path d = "M554 644 L542 644 L548 633 L554 644 Z" stroke = "#0000ff" stroke-width = "2" fill = "#0000ff" />    <line x1="649" y1="669" x2="649" y2="644" style="stroke:#ffa500;stroke-width:2" />
	<path d = "M656 644 L643 644 L649 633 L656 644 Z" stroke = "#ffa500" stroke-width = "2" fill = "#ffa500" />    <line x1="194" y1="12" x2="194" y2="37" style="stroke:#ff0000;stroke-width:2" />
	<path d = "M187 37 L200 37 L194 48 L187 37 Z" stroke = "#ff0000" stroke-width = "2" fill = "#ff0000" />    <line x1="295" y1="62" x2="295" y2="37" style="stroke:#0000ff;stroke-width:2" />
	<path d = "M301 37 L289 37 L295 26 L301 37 Z" stroke = "#0000ff" stroke-width = "2" fill = "#0000ff" />    <line x1="599" y1="62" x2="599" y2="37" style="stroke:#0000ff;stroke-width:2" />
	<path d = "M605 37 L592 37 L599 26 L605 37 Z" stroke = "#0000ff" stroke-width = "2" fill = "#0000ff" /></svg>